<?xml version="1.0" encoding="utf-8"?>
<!-- Generator: Adobe Illustrator 26.5.0, SVG Export Plug-In . SVG Version: 6.00 Build 0)  -->
<svg version="1.1" xmlns="http://www.w3.org/2000/svg" xmlns:xlink="http://www.w3.org/1999/xlink" x="0px" y="0px"
	 viewBox="0 0 288 216" style="enable-background:new 0 0 288 216;" xml:space="preserve">
<style type="text/css">
	.st0{display:none;}
	.st1{fill:#007DC5;}
	.st2{fill:#006AB6;}
</style>
<g id="Layer_1" class="st0">
</g>
<g id="Layer_3">
	<g>
		<path d="M113.08,95.55c-4.33-3.8-9.2-6.63-14.04-9.47c-8.29-4.87-9.49-4.48-15.14-8.29c-4.92-3.32-9.53-6.43-13.38-12.1
			c-2.07-3.06-6.72-9.96-5.85-19.5c0.94-10.3,7.69-16.61,9.51-18.2c2.55-2.22,5.22-3.72,7.8-4.75c-7.19-3.11-13.92-2.58-15.91-2.4
			c-3.11,0.28-12.88,1.61-20.73,9.67c-12.36,12.69-8.52,30.35-8.2,31.7c1.63,6.92,5.26,11.91,7.07,14.36
			c1.57,2.12,4.36,5.49,11.35,10.78c8.37,6.34,10.86,6.43,23.23,14.19c11.7,7.35,14.9,10.68,17.29,14.05
			c1.82,2.57,4.37,6.24,5.29,11.66c1.59,9.3-2.8,16.67-4.21,18.96c-4.77,7.75-11.7,10.99-15.22,12.57c0.25,0.12,0.48,0.26,0.73,0.38
			c8.13,3.84,15.55,2.99,18.06,2.67c2.83-0.36,13.83-2.16,21.61-11.77c9.78-12.09,6.65-26.9,5.93-30.29
			C125.46,106.41,116.33,98.39,113.08,95.55z"/>
		<path class="st1" d="M66.5,140.64c-2.48-6.76-2.2-12.74-1.82-15.94H36.75c-0.21,1.17-3.05,18.99,9.37,29.97
			c8.1,7.15,18.17,7.4,20.61,7.46c1.36,0.03,7.95,0.11,15.55-3.3c0.01,0,0.02-0.01,0.03-0.01C71.84,153.52,67.7,143.9,66.5,140.64z"
			/>
		<path class="st2" d="M101.39,53.13h27.93c-0.04-1.94-0.56-16.7-12.88-26.03c-8.81-6.68-18.5-6.51-22.15-6.39
			c-2.71,0.09-7.49,0.25-12.64,2.31c0.47,0.2,0.93,0.42,1.4,0.65C99.17,31.69,101.26,51.61,101.39,53.13z"/>
		<g>
			<path class="st2" d="M184.72,89.49c-1.39-2.47-2.22-4.27-2.49-5.42c-0.55-2.33-0.28-4.51,0.81-6.52s2.7-3.27,4.81-3.77
				c1.9-0.45,3.6-0.2,5.09,0.76c1.49,0.96,2.44,2.28,2.84,3.96c0.34,1.43,0.19,2.94-0.46,4.54c-0.64,1.6-1.67,3.02-3.09,4.27
				l6.94,9.64c0.86-1.98,1.13-3.65,0.81-5c-0.13-0.55-0.51-0.86-1.14-0.93c-0.34-0.03-0.52-0.12-0.56-0.27l-0.31-1.29
				c-0.14-0.58,0.06-0.93,0.6-1.06l5.67-1.35c0.48-0.11,0.79,0.14,0.94,0.77l0.29,1.23c0.07,0.3-0.04,0.55-0.34,0.76
				c-1.01,0.73-1.9,2.64-2.69,5.75c-0.4,1.63-0.78,2.9-1.15,3.78c1.04,1.65,2.02,2.37,2.94,2.15c0.46-0.11,0.89-0.38,1.29-0.82
				c0.16-0.18,0.29-0.28,0.38-0.3c0.1-0.02,0.49,0.14,1.17,0.5c0.67,0.36,1.04,0.65,1.09,0.87c0.05,0.21-0.1,0.56-0.46,1.05
				c-1.58,2.2-2.88,4.27-3.9,6.2c-1.07,0.25-2.05,0.26-2.93,0.02c-0.88-0.24-1.97-0.89-3.28-1.95c-1.55,2.67-3.5,4.28-5.85,4.83
				c-2.93,0.7-5.5-0.01-7.7-2.12c-2.2-2.11-3.66-4.65-4.37-7.62c-0.57-2.41-0.45-4.64,0.35-6.7
				C180.83,93.4,182.39,91.41,184.72,89.49z M195.11,104.67c-2.43-2.69-5.24-6.7-8.43-12.04c-1.17,0.7-1.58,1.8-1.22,3.28
				c0.34,1.43,1.46,3.47,3.36,6.13c1.9,2.66,3.52,3.83,4.84,3.52C194.13,105.45,194.61,105.15,195.11,104.67z M190.38,84.39
				c1.38-1.26,1.87-2.75,1.45-4.49c-0.23-0.97-0.64-1.75-1.23-2.35c-0.59-0.6-1.2-0.82-1.84-0.67c-0.45,0.11-0.78,0.4-0.99,0.88
				c-0.22,0.48-0.26,1-0.13,1.55C187.96,80.65,188.88,82.34,190.38,84.39z"/>
		</g>
		<path d="M151.17,60.1v18.56c0,2.45,0.42,4.37,1.26,5.77c0.84,1.39,1.91,2.08,3.21,2.08c2.02,0,3.64-0.97,4.85-2.92
			c1.21-1.95,1.86-4.62,1.93-8.01c0.03-1.82,0.18-2.9,0.46-3.27c0.28-0.36,1.24-0.54,2.89-0.54c1.44,0,2.35,0.17,2.73,0.5
			c0.39,0.33,0.58,1.16,0.58,2.49c0,4.66-1.33,8.8-3.99,12.43c-2.66,3.63-6.19,5.45-10.57,5.45c-5.03,0-9.3-2.59-12.81-7.78
			s-5.27-13-5.27-23.44s1.62-18.38,4.87-23.85c3.24-5.46,7.5-8.19,12.77-8.19c4.52,0,8.16,2.3,10.89,6.9
			c2.74,4.6,4.11,11.13,4.11,19.6v4.22H151.17z M156.55,54.42V39.4c0-2.85-0.89-4.27-2.67-4.27c-1.81,0-2.71,1.42-2.71,4.27v15.02
			H156.55z"/>
		<path d="M181.33,31.46h-1.55c-0.45,0-0.74-0.04-0.86-0.12c-0.12-0.08-0.18-0.3-0.18-0.66v-2.17c0-0.4,0.06-0.67,0.18-0.79
			c0.12-0.12,0.47-0.21,1.06-0.27c1.92-0.22,3.85-1.02,5.79-2.41c1.94-1.39,3.1-2.87,3.47-4.46c0.13-0.56,0.3-0.91,0.5-1.04
			c0.2-0.13,0.6-0.19,1.22-0.19h2.59c0.69,0,1.04,0.35,1.04,1.05v6.93h2.47c0.93,0,1.4,0.33,1.4,0.99v2.17
			c0,0.64-0.47,0.96-1.4,0.96h-2.47v31.2c0,1.07,0.62,1.83,1.87,2.29c0.61,0.22,1.01,0.49,1.2,0.81c0.18,0.32,0.28,0.9,0.28,1.75
			c0,0.52-0.05,0.81-0.14,0.87c-0.09,0.06-0.42,0.09-0.98,0.09h-12.61c-1.92-1.29-2.87-3.22-2.87-5.81V31.46z"/>
		<path d="M225.3,36.95c4.07-4.26,7.65-6.39,10.73-6.39c2.29,0,4.29,0.96,5.99,2.88c1.7,1.92,2.55,4.45,2.55,7.6v42.91
			c0,1.11,0.28,1.9,0.84,2.39c0.8,0.69,1.2,1.68,1.2,2.97c0,1.44-0.09,2.35-0.28,2.74c-0.19,0.39-0.61,0.59-1.28,0.59h-10.18
			c-0.88,0-1.69-0.72-2.43-2.16c-0.75-1.44-1.12-3.15-1.12-5.13V43.47c0-0.78-0.24-1.49-0.7-2.14c-0.47-0.65-1.02-0.97-1.66-0.97
			c-1.01,0-2.23,0.69-3.67,2.07v41.52c0,0.99,0.36,1.88,1.08,2.66c0.71,0.81,1.08,1.5,1.08,2.07c0,2.07-0.05,3.25-0.16,3.53
			s-0.62,0.43-1.55,0.43h-14.45c-0.61,0-1.02-0.14-1.24-0.43c-0.21-0.29-0.32-0.95-0.32-2c0-1.29,0.06-2.11,0.18-2.45
			c0.12-0.34,0.44-0.74,0.98-1.19c0.77-0.63,1.16-1.5,1.16-2.61V28.76c0-2.01-0.57-3.13-1.72-3.37c-0.61-0.15-0.92-0.56-0.92-1.22
			v-3.2c0-0.63,0.33-0.94,1-0.94h13.41c0.98,0,1.47,0.54,1.47,1.62V36.95z"/>
		<path d="M154.74,99.12c5,0,9.18,2.62,12.53,7.87c3.35,5.25,5.03,13.03,5.03,23.37c0,11.14-1.7,19.57-5.11,25.28
			c-3.4,5.71-7.65,8.57-12.73,8.57c-3.51,0-6.56-1.31-9.14-3.92c-2.58-2.61-4.57-6.1-5.97-10.46c-1.4-4.36-2.1-10.32-2.1-17.88
			c0-10.8,1.6-18.97,4.81-24.51C145.28,101.89,149.5,99.12,154.74,99.12z M157.62,110.84c0-3.86-0.96-5.79-2.87-5.79
			c-2.08,0-3.11,2.37-3.11,7.1v38.8c0,4.7,0.94,7.05,2.83,7.05c2.1,0,3.15-2.35,3.15-7.05V110.84z"/>
		<path d="M196.44,122.31c3.17-3.36,6.79-5.04,10.86-5.04c2.78,0,4.91,0.76,6.38,2.27c1.47,1.51,2.2,3.41,2.2,5.7v32.19
			c0,0.72,0.33,1.27,1,1.65c0.61,0.31,0.92,1.12,0.92,2.42c0,1.03-0.1,1.65-0.3,1.85c-0.2,0.2-0.62,0.3-1.26,0.3h-11.21
			c-1.6-1.14-2.39-2.63-2.39-4.47v-31.96c0-1.75-0.85-2.62-2.55-2.62c-1.12,0-2.33,0.49-3.63,1.48v31.35c0,0.81,0.47,1.43,1.4,1.88
			c0.56,0.27,0.84,0.76,0.84,1.48v1.72c0,0.76-0.65,1.14-1.95,1.14h-14.17c-0.69,0-1.13-0.08-1.32-0.25
			c-0.19-0.17-0.28-0.59-0.28-1.26v-1.24c0-0.65,0.24-1.11,0.72-1.38c0.64-0.38,1.05-0.74,1.24-1.08c0.19-0.34,0.28-1.08,0.28-2.22
			v-32.86c0-0.79-0.45-1.36-1.35-1.72c-0.51-0.2-0.76-0.56-0.76-1.08v-1.78c0-0.7,0.37-1.04,1.12-1.04h13.01
			c0.56,0,0.91,0.07,1.04,0.2c0.13,0.13,0.2,0.41,0.2,0.84V122.31z"/>
		<path d="M248.31,100.85l2.43,12.93c0.06,0.41,0.09,0.76,0.09,1.08c0,0.87-0.8,1.31-2.39,1.31c-1.06,0-1.84-0.14-2.32-0.42
			c-0.49-0.28-1.04-1.03-1.66-2.24c-0.71-1.43-1.79-3.13-3.23-5.09c-1.45-1.96-2.74-2.94-3.9-2.94c-0.44,0-0.84,0.22-1.17,0.65
			s-0.51,0.95-0.51,1.54c0,1.59,2.16,6.08,6.46,13.48c3.72,6.44,6.24,11.49,7.57,15.16c1.33,3.67,1.99,7.81,1.99,12.41
			c0,4.88-1,8.68-3.01,11.41c-2.01,2.72-4.37,4.08-7.08,4.08c-1.71,0-3.51-0.65-5.4-1.96c-1.03-0.71-1.73-1.07-2.08-1.07
			c-0.41,0-0.65,0.36-0.71,1.07c-0.12,0.84-0.29,1.38-0.53,1.61c-0.23,0.23-1,0.35-2.3,0.35c-1,0-1.65-0.15-1.95-0.47
			c-0.29-0.31-0.5-0.86-0.62-1.63l-2.22-13.03c-0.08-0.62-0.13-1.01-0.13-1.17c0-0.87,0.99-1.31,2.96-1.31
			c1.04,0,1.75,0.14,2.15,0.42c0.4,0.28,0.91,1.09,1.53,2.43c2.3,5.07,4.48,7.61,6.55,7.61c1.33,0,1.99-0.84,1.99-2.52
			c0-1.49-0.49-3.34-1.48-5.55c-0.99-2.21-2.91-5.83-5.78-10.87c-3.01-5.35-5.19-9.82-6.53-13.43c-1.34-3.61-2.01-7.23-2.01-10.87
			c0-4.94,1-8.63,3.01-11.06c2.01-2.42,4.44-3.64,7.3-3.64c1.51,0,3.22,0.54,5.14,1.63c0.98,0.56,1.64,0.84,1.99,0.84
			c0.47,0,0.75-0.33,0.84-0.98c0.12-0.69,0.35-1.1,0.71-1.26c0.35-0.16,1.11-0.24,2.26-0.24c0.74,0,1.22,0.09,1.44,0.26
			C247.93,99.55,248.13,100.04,248.31,100.85z"/>
	</g>
	<path d="M43.93,176.28v7.7h1.11c0.31,0,0.53-0.05,0.67-0.16s0.25-0.34,0.33-0.7c0.13-0.64,0.24-1.02,0.32-1.15
		c0.08-0.13,0.21-0.19,0.38-0.19c0.86,0,1.35,0.03,1.47,0.09c0.11,0.06,0.17,0.29,0.17,0.68v4.49c0,0.28-0.05,0.46-0.16,0.55
		c-0.11,0.09-0.45,0.13-1.02,0.13c-0.37,0-0.62-0.06-0.75-0.17s-0.25-0.43-0.37-0.95c-0.12-0.48-0.24-0.77-0.35-0.88
		c-0.11-0.11-0.29-0.16-0.53-0.16h-1.28v9.3h0.87c0.54,0,0.9-0.12,1.11-0.37c0.2-0.25,0.53-0.96,0.97-2.14
		c0.19-0.49,0.38-0.82,0.57-0.97c0.2-0.15,0.54-0.23,1.03-0.23c0.68,0,1.02,0.18,1.02,0.54c0,0.11-0.02,0.27-0.07,0.47l-0.61,3.06
		c-0.11,0.56-0.2,0.89-0.27,1c-0.07,0.11-0.29,0.17-0.66,0.17H36.97c-0.27,0-0.45-0.05-0.52-0.15s-0.11-0.4-0.11-0.9
		c0-0.31,0.2-0.54,0.59-0.69c0.6-0.21,0.9-0.49,0.9-0.85v-16.83c-0.01-0.17-0.26-0.34-0.74-0.51c-0.33-0.12-0.52-0.23-0.58-0.34
		s-0.09-0.37-0.09-0.78c0-0.35,0.03-0.56,0.1-0.63c0.07-0.07,0.26-0.1,0.57-0.1h10.46c0.26,0,0.45,0.04,0.57,0.11
		c0.12,0.07,0.21,0.24,0.28,0.51l0.84,3.48c0.04,0.18,0.07,0.3,0.07,0.36c0,0.24-0.26,0.36-0.79,0.36c-0.59,0-0.99-0.06-1.19-0.17
		c-0.2-0.11-0.39-0.39-0.58-0.84c-0.34-0.81-0.63-1.37-0.87-1.69c-0.24-0.31-0.52-0.47-0.82-0.47H43.93z"/>
	<path d="M59.29,178.28l0.9,3.74c0.02,0.12,0.03,0.22,0.03,0.31c0,0.25-0.3,0.38-0.89,0.38c-0.39,0-0.68-0.04-0.86-0.12
		c-0.18-0.08-0.39-0.3-0.62-0.65c-0.26-0.41-0.66-0.9-1.2-1.47s-1.02-0.85-1.44-0.85c-0.16,0-0.31,0.06-0.43,0.19
		s-0.19,0.27-0.19,0.45c0,0.46,0.8,1.76,2.39,3.9c1.38,1.86,2.31,3.32,2.8,4.38c0.49,1.06,0.74,2.26,0.74,3.59
		c0,1.41-0.37,2.51-1.11,3.3c-0.74,0.79-1.62,1.18-2.62,1.18c-0.63,0-1.3-0.19-2-0.57c-0.38-0.21-0.64-0.31-0.77-0.31
		c-0.15,0-0.24,0.1-0.26,0.31c-0.04,0.24-0.11,0.4-0.2,0.47c-0.09,0.07-0.37,0.1-0.85,0.1c-0.37,0-0.61-0.04-0.72-0.13
		c-0.11-0.09-0.19-0.25-0.23-0.47l-0.82-3.76c-0.03-0.18-0.05-0.29-0.05-0.34c0-0.25,0.37-0.38,1.1-0.38c0.38,0,0.65,0.04,0.8,0.12
		s0.34,0.31,0.56,0.7c0.85,1.47,1.66,2.2,2.43,2.2c0.49,0,0.74-0.24,0.74-0.73c0-0.43-0.18-0.97-0.55-1.6
		c-0.37-0.64-1.08-1.68-2.14-3.14c-1.11-1.55-1.92-2.84-2.42-3.88c-0.5-1.04-0.75-2.09-0.75-3.14c0-1.43,0.37-2.49,1.11-3.2
		c0.74-0.7,1.64-1.05,2.7-1.05c0.56,0,1.19,0.16,1.9,0.47c0.36,0.16,0.61,0.24,0.74,0.24c0.17,0,0.28-0.09,0.31-0.28
		c0.04-0.2,0.13-0.32,0.26-0.36c0.13-0.04,0.41-0.07,0.84-0.07c0.27,0,0.45,0.03,0.53,0.07C59.15,177.91,59.23,178.05,59.29,178.28z
		"/>
	<path d="M62.68,179.82h-0.64c-0.19,0-0.3-0.02-0.35-0.05c-0.05-0.04-0.07-0.13-0.07-0.3v-0.97c0-0.18,0.03-0.3,0.07-0.35
		c0.05-0.05,0.19-0.09,0.43-0.12c0.79-0.1,1.58-0.46,2.38-1.08c0.8-0.62,1.27-1.29,1.43-2c0.05-0.25,0.12-0.41,0.21-0.47
		c0.08-0.06,0.25-0.09,0.5-0.09h1.07c0.28,0,0.43,0.16,0.43,0.47v3.1h1.02c0.38,0,0.57,0.15,0.57,0.45v0.97
		c0,0.29-0.19,0.43-0.57,0.43h-1.02v13.98c0,0.48,0.26,0.82,0.77,1.03c0.25,0.1,0.42,0.22,0.49,0.36s0.11,0.4,0.11,0.78
		c0,0.23-0.02,0.36-0.06,0.39c-0.04,0.03-0.17,0.04-0.4,0.04h-5.18c-0.79-0.58-1.18-1.44-1.18-2.6V179.82z"/>
	<path d="M79.44,183.33v-2.6c0-0.72-0.36-1.08-1.07-1.08c-0.97,0-1.46,0.54-1.46,1.63c0,0.61-0.08,1.05-0.25,1.31
		s-0.55,0.48-1.15,0.67c-0.6,0.19-1.23,0.28-1.91,0.28c-1.39,0-2.08-0.61-2.08-1.84c0-1.15,0.6-2.09,1.81-2.82s2.78-1.09,4.73-1.09
		c1.28,0,2.43,0.14,3.45,0.43c1.02,0.29,1.84,0.77,2.45,1.46c0.61,0.68,0.92,1.43,0.92,2.25v12.31c0.02,0.06,0.19,0.2,0.49,0.4
		c0.22,0.13,0.33,0.33,0.33,0.59c0,0.36-0.06,0.61-0.18,0.76c-0.12,0.15-0.41,0.29-0.88,0.41c-0.46,0.13-1.05,0.19-1.75,0.19
		c-0.85,0-1.56-0.13-2.13-0.38c-0.57-0.26-1.01-0.76-1.33-1.5c-0.95,0.81-1.72,1.33-2.31,1.55c-0.59,0.22-1.2,0.34-1.82,0.34
		c-1.39,0-2.46-0.45-3.22-1.34c-0.76-0.89-1.14-2.36-1.14-4.39c0-2.03,0.36-3.44,1.07-4.23c0.71-0.79,2.1-1.51,4.16-2.18
		C77.49,184.05,78.57,183.67,79.44,183.33z M79.44,185.08c-1.23,0.45-1.97,0.95-2.21,1.52c-0.24,0.56-0.36,1.83-0.36,3.79
		c0,1.45,0.1,2.36,0.3,2.74c0.2,0.38,0.54,0.57,1.02,0.57c0.84,0,1.26-0.57,1.26-1.72V185.08z"/>
	<path d="M87.86,179.82h-0.64c-0.19,0-0.3-0.02-0.35-0.05s-0.07-0.13-0.07-0.3v-0.97c0-0.18,0.03-0.3,0.07-0.35s0.19-0.09,0.43-0.12
		c0.79-0.1,1.58-0.46,2.38-1.08c0.8-0.62,1.27-1.29,1.43-2c0.05-0.25,0.12-0.41,0.21-0.47c0.08-0.06,0.25-0.09,0.5-0.09h1.07
		c0.28,0,0.43,0.16,0.43,0.47v3.1h1.02c0.38,0,0.57,0.15,0.57,0.45v0.97c0,0.29-0.19,0.43-0.57,0.43H93.3v13.98
		c0,0.48,0.26,0.82,0.77,1.03c0.25,0.1,0.42,0.22,0.49,0.36s0.11,0.4,0.11,0.78c0,0.23-0.02,0.36-0.06,0.39
		c-0.04,0.03-0.17,0.04-0.4,0.04h-5.18c-0.79-0.58-1.18-1.44-1.18-2.6V179.82z"/>
	<path d="M102.28,186.92v5.52c0,0.73,0.17,1.3,0.52,1.71c0.34,0.41,0.78,0.62,1.32,0.62c0.83,0,1.49-0.29,1.99-0.87
		c0.5-0.58,0.76-1.37,0.79-2.38c0.01-0.54,0.07-0.86,0.19-0.97s0.51-0.16,1.19-0.16c0.59,0,0.96,0.05,1.12,0.15
		c0.16,0.1,0.24,0.35,0.24,0.74c0,1.39-0.55,2.62-1.64,3.7s-2.54,1.62-4.34,1.62c-2.07,0-3.82-0.77-5.26-2.31
		c-1.44-1.54-2.16-3.87-2.16-6.97s0.67-5.47,2-7.09c1.33-1.62,3.08-2.44,5.25-2.44c1.86,0,3.35,0.68,4.47,2.05
		c1.13,1.37,1.69,3.31,1.69,5.83v1.25H102.28z M104.5,185.23v-4.47c0-0.85-0.37-1.27-1.1-1.27c-0.74,0-1.11,0.42-1.11,1.27v4.47
		H104.5z"/>
	<path d="M126.79,175.2c0.07-0.04,0.25-0.25,0.56-0.61c0.2-0.23,0.46-0.35,0.79-0.35c0.08,0,0.38,0.03,0.92,0.09
		c0.11,0.09,0.19,0.28,0.25,0.57l0.89,4.57c0.04,0.24,0.07,0.39,0.07,0.43c0,0.17-0.06,0.28-0.17,0.34
		c-0.11,0.05-0.42,0.08-0.91,0.08c-0.56,0-0.92-0.06-1.08-0.18c-0.16-0.12-0.48-0.6-0.93-1.46c-0.97-1.81-1.84-2.71-2.61-2.71
		c-0.55,0-0.82,0.31-0.82,0.94c0,0.78,0.83,2.32,2.48,4.61c1.89,2.64,3.12,4.56,3.7,5.74c0.57,1.18,0.86,2.51,0.86,3.97
		c0,1.74-0.5,3.07-1.49,3.99s-2.11,1.39-3.36,1.39c-0.79,0-1.55-0.18-2.28-0.55c-0.28-0.14-0.51-0.22-0.67-0.22
		c-0.14,0-0.26,0.09-0.34,0.26c-0.17,0.34-0.6,0.51-1.28,0.51c-0.26,0-0.44-0.03-0.53-0.1c-0.09-0.07-0.16-0.25-0.21-0.53
		l-0.82-4.49c-0.11-0.58-0.16-0.88-0.16-0.92c0-0.26,0.29-0.39,0.87-0.39c0.79,0,1.25,0.09,1.39,0.26c0.14,0.17,0.34,0.56,0.61,1.17
		c0.96,2.19,1.93,3.28,2.9,3.28c0.36,0,0.65-0.11,0.88-0.32c0.22-0.22,0.34-0.49,0.34-0.81c0-0.57-0.25-1.24-0.75-2.02
		c-0.5-0.78-1.11-1.64-1.83-2.6c-1.73-2.28-2.95-4.11-3.66-5.47c-0.72-1.36-1.07-2.76-1.07-4.18c0-1.6,0.43-2.88,1.28-3.83
		c0.85-0.95,1.9-1.43,3.13-1.43C124.54,174.26,125.58,174.57,126.79,175.2z"/>
	<path d="M140.44,183.33v-2.6c0-0.72-0.36-1.08-1.07-1.08c-0.97,0-1.46,0.54-1.46,1.63c0,0.61-0.08,1.05-0.25,1.31
		s-0.55,0.48-1.15,0.67c-0.6,0.19-1.23,0.28-1.91,0.28c-1.39,0-2.08-0.61-2.08-1.84c0-1.15,0.6-2.09,1.81-2.82
		c1.21-0.73,2.78-1.09,4.73-1.09c1.28,0,2.43,0.14,3.45,0.43c1.02,0.29,1.84,0.77,2.45,1.46c0.61,0.68,0.92,1.43,0.92,2.25v12.31
		c0.02,0.06,0.19,0.2,0.49,0.4c0.22,0.13,0.33,0.33,0.33,0.59c0,0.36-0.06,0.61-0.18,0.76c-0.12,0.15-0.41,0.29-0.88,0.41
		c-0.46,0.13-1.05,0.19-1.75,0.19c-0.85,0-1.56-0.13-2.13-0.38c-0.57-0.26-1.01-0.76-1.33-1.5c-0.95,0.81-1.72,1.33-2.31,1.55
		c-0.59,0.22-1.2,0.34-1.82,0.34c-1.39,0-2.46-0.45-3.22-1.34c-0.76-0.89-1.14-2.36-1.14-4.39c0-2.03,0.36-3.44,1.07-4.23
		c0.71-0.79,2.1-1.51,4.16-2.18C138.49,184.05,139.58,183.67,140.44,183.33z M140.44,185.08c-1.23,0.45-1.97,0.95-2.21,1.52
		c-0.24,0.56-0.36,1.83-0.36,3.79c0,1.45,0.1,2.36,0.3,2.74c0.2,0.38,0.54,0.57,1.02,0.57c0.84,0,1.26-0.57,1.26-1.72V185.08z"/>
	<path d="M148.03,175.73v-0.67c0-0.29,0.23-0.43,0.69-0.43h5.06c0.27,0,0.45,0.02,0.54,0.05s0.13,0.19,0.13,0.46v18.85
		c0,0.41,0.16,0.67,0.49,0.77c0.23,0.07,0.34,0.22,0.34,0.46v0.77c0,0.28-0.24,0.42-0.74,0.42h-6.02c-0.34,0-0.51-0.14-0.51-0.42
		v-0.77c0-0.31,0.17-0.55,0.51-0.7c0.22-0.09,0.36-0.17,0.41-0.25c0.05-0.08,0.08-0.22,0.08-0.44v-16.72c0-0.31-0.15-0.53-0.44-0.63
		C148.22,176.32,148.03,176.07,148.03,175.73z"/>
	<path d="M162.93,186.92v5.52c0,0.73,0.17,1.3,0.52,1.71c0.34,0.41,0.78,0.62,1.32,0.62c0.83,0,1.49-0.29,1.99-0.87
		c0.5-0.58,0.76-1.37,0.79-2.38c0.01-0.54,0.07-0.86,0.19-0.97c0.11-0.11,0.51-0.16,1.19-0.16c0.59,0,0.96,0.05,1.12,0.15
		c0.16,0.1,0.24,0.35,0.24,0.74c0,1.39-0.55,2.62-1.64,3.7s-2.54,1.62-4.34,1.62c-2.07,0-3.82-0.77-5.26-2.31
		c-1.44-1.54-2.16-3.87-2.16-6.97s0.67-5.47,2-7.09c1.33-1.62,3.08-2.44,5.25-2.44c1.86,0,3.35,0.68,4.47,2.05s1.69,3.31,1.69,5.83
		v1.25H162.93z M165.14,185.23v-4.47c0-0.85-0.37-1.27-1.1-1.27c-0.74,0-1.11,0.42-1.11,1.27v4.47H165.14z"/>
	<path d="M177.63,181.56c0.13-0.22,0.29-0.59,0.48-1.13c0.42-1.17,0.82-1.9,1.22-2.2c0.4-0.3,0.84-0.45,1.32-0.45
		c0.66,0,1.15,0.26,1.48,0.77s0.5,1.16,0.5,1.93c0,1.66-0.57,2.5-1.7,2.5c-0.57,0-1.01-0.27-1.31-0.82
		c-0.19-0.31-0.38-0.47-0.57-0.47c-0.49,0-0.74,0.45-0.74,1.34v10.78c0,0.34,0.19,0.59,0.57,0.76c0.38,0.15,0.57,0.4,0.57,0.74v0.61
		c0,0.22-0.03,0.35-0.09,0.41c-0.06,0.06-0.23,0.09-0.52,0.09h-6.18c-0.43,0-0.64-0.17-0.64-0.5v-0.74c0-0.25,0.09-0.42,0.28-0.5
		c0.37-0.15,0.56-0.39,0.56-0.7v-13.59c0-0.31-0.13-0.53-0.39-0.66c-0.28-0.13-0.45-0.24-0.49-0.32c-0.04-0.08-0.07-0.31-0.07-0.69
		c0-0.32,0.06-0.53,0.17-0.61c0.11-0.08,0.31-0.12,0.58-0.12h4.43c0.21,0,0.35,0.05,0.43,0.14c0.08,0.09,0.11,0.32,0.11,0.68V181.56
		z"/>
	<path d="M192.32,178.28l0.9,3.74c0.02,0.12,0.03,0.22,0.03,0.31c0,0.25-0.3,0.38-0.89,0.38c-0.39,0-0.68-0.04-0.86-0.12
		c-0.18-0.08-0.39-0.3-0.62-0.65c-0.26-0.41-0.66-0.9-1.2-1.47c-0.54-0.57-1.02-0.85-1.44-0.85c-0.16,0-0.31,0.06-0.43,0.19
		c-0.13,0.13-0.19,0.27-0.19,0.45c0,0.46,0.8,1.76,2.39,3.9c1.38,1.86,2.31,3.32,2.8,4.38c0.49,1.06,0.74,2.26,0.74,3.59
		c0,1.41-0.37,2.51-1.11,3.3c-0.74,0.79-1.62,1.18-2.62,1.18c-0.63,0-1.3-0.19-2-0.57c-0.38-0.21-0.64-0.31-0.77-0.31
		c-0.15,0-0.24,0.1-0.26,0.31c-0.04,0.24-0.11,0.4-0.2,0.47c-0.09,0.07-0.37,0.1-0.85,0.1c-0.37,0-0.61-0.04-0.72-0.13
		c-0.11-0.09-0.19-0.25-0.23-0.47l-0.82-3.76c-0.03-0.18-0.05-0.29-0.05-0.34c0-0.25,0.37-0.38,1.1-0.38c0.38,0,0.65,0.04,0.79,0.12
		c0.15,0.08,0.34,0.31,0.57,0.7c0.85,1.47,1.66,2.2,2.43,2.2c0.49,0,0.74-0.24,0.74-0.73c0-0.43-0.18-0.97-0.55-1.6
		c-0.37-0.64-1.08-1.68-2.14-3.14c-1.11-1.55-1.92-2.84-2.42-3.88c-0.5-1.04-0.75-2.09-0.75-3.14c0-1.43,0.37-2.49,1.11-3.2
		c0.74-0.7,1.64-1.05,2.7-1.05c0.56,0,1.19,0.16,1.9,0.47c0.36,0.16,0.61,0.24,0.74,0.24c0.17,0,0.28-0.09,0.31-0.28
		c0.04-0.2,0.13-0.32,0.26-0.36c0.13-0.04,0.41-0.07,0.84-0.07c0.27,0,0.45,0.03,0.53,0.07
		C192.18,177.91,192.26,178.05,192.32,178.28z"/>
	<path d="M195.7,193.19c0-0.54,0.21-1.03,0.62-1.46c0.42-0.44,1.01-0.65,1.79-0.65c0.91,0,1.67,0.3,2.29,0.88
		c0.62,0.59,0.93,1.37,0.93,2.35c0,1.41-0.57,2.67-1.72,3.77c-1.15,1.1-1.95,1.65-2.41,1.65c-0.22,0-0.46-0.11-0.74-0.34
		c-0.27-0.22-0.41-0.38-0.41-0.47c0-0.12,0.11-0.27,0.33-0.45c1.01-0.77,1.51-1.54,1.51-2.31c0-0.2-0.05-0.38-0.16-0.55
		c-0.1-0.17-0.36-0.4-0.78-0.67c-0.42-0.28-0.73-0.55-0.93-0.82C195.8,193.86,195.7,193.55,195.7,193.19z"/>
	<path d="M219.02,194.88h0.93c0.48,0,0.84-0.16,1.07-0.47c0.23-0.31,0.53-1.04,0.9-2.19c0.13-0.44,0.29-0.71,0.48-0.8
		c0.19-0.1,0.5-0.14,0.95-0.14c0.49,0,0.81,0.03,0.95,0.1c0.14,0.07,0.21,0.19,0.21,0.37c0,0.13-0.03,0.33-0.08,0.61l-0.57,3.22
		c-0.07,0.33-0.15,0.55-0.25,0.66s-0.31,0.16-0.63,0.16h-10.79c-0.46,0-0.69-0.23-0.69-0.7c0-0.36,0.03-0.59,0.09-0.69
		c0.06-0.1,0.19-0.18,0.38-0.24c0.62-0.16,0.93-0.63,0.93-1.42v-16.03c0-0.33-0.2-0.57-0.59-0.72c-0.34-0.12-0.55-0.25-0.62-0.39
		s-0.11-0.38-0.11-0.72c0-0.4,0.03-0.64,0.1-0.73c0.07-0.1,0.24-0.14,0.52-0.14h7.56c0.28,0,0.48,0.06,0.58,0.17
		c0.1,0.11,0.16,0.42,0.16,0.91c0,0.3-0.04,0.5-0.11,0.6s-0.25,0.2-0.55,0.28c-0.55,0.15-0.82,0.45-0.82,0.89V194.88z"/>
	<path d="M232.66,194.88h0.93c0.48,0,0.84-0.16,1.07-0.47c0.23-0.31,0.53-1.04,0.9-2.19c0.13-0.44,0.29-0.71,0.48-0.8
		c0.19-0.1,0.5-0.14,0.95-0.14c0.49,0,0.81,0.03,0.95,0.1c0.14,0.07,0.21,0.19,0.21,0.37c0,0.13-0.03,0.33-0.08,0.61l-0.57,3.22
		c-0.07,0.33-0.15,0.55-0.25,0.66s-0.31,0.16-0.63,0.16h-10.79c-0.46,0-0.69-0.23-0.69-0.7c0-0.36,0.03-0.59,0.09-0.69
		c0.06-0.1,0.19-0.18,0.38-0.24c0.62-0.16,0.93-0.63,0.93-1.42v-16.03c0-0.33-0.2-0.57-0.59-0.72c-0.34-0.12-0.55-0.25-0.62-0.39
		s-0.11-0.38-0.11-0.72c0-0.4,0.03-0.64,0.1-0.73c0.07-0.1,0.24-0.14,0.52-0.14h7.56c0.28,0,0.48,0.06,0.58,0.17
		c0.1,0.11,0.16,0.42,0.16,0.91c0,0.3-0.04,0.5-0.11,0.6s-0.25,0.2-0.55,0.28c-0.55,0.15-0.82,0.45-0.82,0.89V194.88z"/>
	<path d="M249.77,174.26h0.85c0.2,0,0.34,0.06,0.44,0.18c0.1,0.12,0.17,0.45,0.21,0.98l0.38,4.34c0.01,0.09,0.02,0.18,0.02,0.26
		c0,0.31-0.07,0.54-0.2,0.66s-0.39,0.19-0.79,0.19c-0.48,0-0.81-0.1-1-0.31c-0.19-0.21-0.37-0.7-0.54-1.47
		c-0.45-1.96-1.09-2.94-1.92-2.94c-0.69,0-1.03,0.71-1.03,2.12v15.18c0,1.01,0.36,1.51,1.08,1.51c0.92,0,1.43-0.84,1.54-2.52
		c0.03-0.49,0.15-0.82,0.34-1.01s0.6-0.28,1.21-0.28c0.46,0,0.78,0.07,0.96,0.21c0.18,0.14,0.27,0.41,0.27,0.82
		c0,1.29-0.47,2.35-1.41,3.2c-0.94,0.85-2.11,1.28-3.51,1.28c-1.35,0-2.55-0.36-3.57-1.07c-1.03-0.71-1.92-1.94-2.66-3.68
		c-0.75-1.74-1.12-3.97-1.12-6.69c0-2.56,0.31-4.61,0.94-6.15c0.63-1.53,1.43-2.72,2.41-3.55c0.98-0.84,2.12-1.25,3.42-1.26
		c0.79,0,1.47,0.18,2.05,0.53c0.22,0.13,0.38,0.19,0.49,0.19c0.13,0,0.32-0.13,0.56-0.38C249.4,174.37,249.6,174.26,249.77,174.26z"
		/>
</g>
</svg>
